<svg width="18" height="19" viewBox="0 0 18 19" fill="none" xmlns="http://www.w3.org/2000/svg">
<path d="M17.7731 17.6391L12.6087 12.1839C13.6268 10.895 14.2392 9.2479 14.2392 7.44894C14.2392 3.34483 11.0483 0.0078125 7.12327 0.0078125C3.19828 0.0078125 0 3.34873 0 7.45284C0 11.5569 3.1909 14.894 7.11589 14.894C8.78328 14.894 10.3179 14.2904 11.5352 13.2819L16.7181 18.7528C17.0206 19.0721 17.4706 19.0721 17.7731 18.7528C18.0756 18.4335 18.0756 17.9584 17.7731 17.6391ZM1.51245 7.45284C1.51245 4.22874 4.02828 1.60818 7.11589 1.60818C10.2035 1.60818 12.7193 4.22874 12.7193 7.45284C12.7193 10.6769 10.2035 13.2975 7.11589 13.2975C4.02828 13.2975 1.51245 10.673 1.51245 7.45284Z" fill="black"/>
</svg>
